<mxfile host="app.diagrams.net" modified="2021-03-02T07:18:41.928Z" agent="5.0 (Windows NT 10.0; Win64; x64) AppleWebKit/537.36 (KHTML, like Gecko) Chrome/88.0.4324.182 Safari/537.36 Edg/88.0.705.81" etag="ySxj1rcU8Y7Jta92weZQ" version="14.4.3" type="github">
  <diagram id="Vwi1EXBxK2TPIhp4Lb0i" name="Page-1">
    <mxGraphModel dx="1263" dy="1049" grid="1" gridSize="10" guides="1" tooltips="1" connect="1" arrows="1" fold="1" page="1" pageScale="1" pageWidth="1654" pageHeight="1169" math="0" shadow="0">
      <root>
        <mxCell id="0" />
        <mxCell id="1" parent="0" />
        <mxCell id="ojZRrKEfwaqTqY8flWgd-1" value="" style="endArrow=none;html=1;" parent="1" edge="1">
          <mxGeometry width="50" height="50" relative="1" as="geometry">
            <mxPoint x="1350" y="220" as="sourcePoint" />
            <mxPoint x="1410" y="220" as="targetPoint" />
          </mxGeometry>
        </mxCell>
        <mxCell id="ojZRrKEfwaqTqY8flWgd-2" value="" style="endArrow=none;html=1;" parent="1" edge="1">
          <mxGeometry width="50" height="50" relative="1" as="geometry">
            <mxPoint x="1335" y="230" as="sourcePoint" />
            <mxPoint x="1395" y="230" as="targetPoint" />
          </mxGeometry>
        </mxCell>
        <mxCell id="ojZRrKEfwaqTqY8flWgd-3" value="" style="endArrow=none;html=1;exitX=1;exitY=0.25;exitDx=0;exitDy=0;jumpStyle=arc;rounded=0;" parent="1" source="ojZRrKEfwaqTqY8flWgd-39" edge="1">
          <mxGeometry width="50" height="50" relative="1" as="geometry">
            <mxPoint x="850" y="330" as="sourcePoint" />
            <mxPoint x="1351.3326710668102" y="220" as="targetPoint" />
            <Array as="points">
              <mxPoint x="870" y="460" />
              <mxPoint x="870" y="220" />
            </Array>
          </mxGeometry>
        </mxCell>
        <mxCell id="ojZRrKEfwaqTqY8flWgd-4" value="" style="endArrow=none;html=1;exitX=0.25;exitY=0;exitDx=0;exitDy=0;rounded=0;" parent="1" source="ojZRrKEfwaqTqY8flWgd-42" edge="1">
          <mxGeometry width="50" height="50" relative="1" as="geometry">
            <mxPoint x="985" y="450" as="sourcePoint" />
            <mxPoint x="1335" y="230" as="targetPoint" />
            <Array as="points">
              <mxPoint x="990" y="230" />
            </Array>
          </mxGeometry>
        </mxCell>
        <mxCell id="ojZRrKEfwaqTqY8flWgd-5" style="edgeStyle=orthogonalEdgeStyle;rounded=0;orthogonalLoop=1;jettySize=auto;html=1;exitX=0.5;exitY=1;exitDx=0;exitDy=0;entryX=0.5;entryY=1;entryDx=0;entryDy=0;" parent="1" source="ojZRrKEfwaqTqY8flWgd-53" target="ojZRrKEfwaqTqY8flWgd-39" edge="1">
          <mxGeometry relative="1" as="geometry">
            <Array as="points">
              <mxPoint x="1470" y="690" />
              <mxPoint x="810" y="690" />
            </Array>
          </mxGeometry>
        </mxCell>
        <mxCell id="ojZRrKEfwaqTqY8flWgd-6" value="LO" style="edgeLabel;html=1;align=center;verticalAlign=middle;resizable=0;points=[];" parent="ojZRrKEfwaqTqY8flWgd-5" vertex="1" connectable="0">
          <mxGeometry x="-0.9669" y="-1" relative="1" as="geometry">
            <mxPoint as="offset" />
          </mxGeometry>
        </mxCell>
        <mxCell id="ojZRrKEfwaqTqY8flWgd-7" style="edgeStyle=orthogonalEdgeStyle;rounded=0;orthogonalLoop=1;jettySize=auto;html=1;exitX=0.25;exitY=1;exitDx=0;exitDy=0;entryX=0.75;entryY=1;entryDx=0;entryDy=0;" parent="1" source="ojZRrKEfwaqTqY8flWgd-53" target="ojZRrKEfwaqTqY8flWgd-39" edge="1">
          <mxGeometry relative="1" as="geometry">
            <Array as="points">
              <mxPoint x="1455" y="680" />
              <mxPoint x="830" y="680" />
            </Array>
          </mxGeometry>
        </mxCell>
        <mxCell id="ojZRrKEfwaqTqY8flWgd-8" value="HI" style="edgeLabel;html=1;align=center;verticalAlign=middle;resizable=0;points=[];" parent="ojZRrKEfwaqTqY8flWgd-7" vertex="1" connectable="0">
          <mxGeometry x="-0.9623" relative="1" as="geometry">
            <mxPoint as="offset" />
          </mxGeometry>
        </mxCell>
        <mxCell id="ojZRrKEfwaqTqY8flWgd-9" style="edgeStyle=orthogonalEdgeStyle;rounded=0;orthogonalLoop=1;jettySize=auto;html=1;entryX=0.75;entryY=1;entryDx=0;entryDy=0;" parent="1" source="ojZRrKEfwaqTqY8flWgd-59" target="ojZRrKEfwaqTqY8flWgd-16" edge="1">
          <mxGeometry relative="1" as="geometry">
            <Array as="points">
              <mxPoint x="530" y="670" />
              <mxPoint x="350" y="670" />
            </Array>
            <mxPoint x="510" y="660" as="sourcePoint" />
          </mxGeometry>
        </mxCell>
        <mxCell id="ojZRrKEfwaqTqY8flWgd-10" style="edgeStyle=orthogonalEdgeStyle;rounded=0;orthogonalLoop=1;jettySize=auto;html=1;entryX=1;entryY=0.75;entryDx=0;entryDy=0;jumpStyle=arc;" parent="1" source="ojZRrKEfwaqTqY8flWgd-59" target="ojZRrKEfwaqTqY8flWgd-46" edge="1">
          <mxGeometry relative="1" as="geometry">
            <Array as="points">
              <mxPoint x="610" y="700" />
              <mxPoint x="1280" y="700" />
              <mxPoint x="1280" y="480" />
            </Array>
            <mxPoint x="630" y="680" as="sourcePoint" />
          </mxGeometry>
        </mxCell>
        <mxCell id="ojZRrKEfwaqTqY8flWgd-11" style="edgeStyle=orthogonalEdgeStyle;rounded=0;orthogonalLoop=1;jettySize=auto;html=1;jumpStyle=arc;" parent="1" target="ojZRrKEfwaqTqY8flWgd-53" edge="1">
          <mxGeometry relative="1" as="geometry">
            <Array as="points">
              <mxPoint x="1470" y="220" />
            </Array>
            <mxPoint x="1410" y="220" as="sourcePoint" />
          </mxGeometry>
        </mxCell>
        <mxCell id="ojZRrKEfwaqTqY8flWgd-12" style="edgeStyle=orthogonalEdgeStyle;rounded=0;orthogonalLoop=1;jettySize=auto;html=1;entryX=0.25;entryY=0;entryDx=0;entryDy=0;endFill=1;snapToPoint=0;" parent="1" target="ojZRrKEfwaqTqY8flWgd-53" edge="1">
          <mxGeometry relative="1" as="geometry">
            <Array as="points">
              <mxPoint x="1455" y="230" />
            </Array>
            <mxPoint x="1395" y="230" as="sourcePoint" />
          </mxGeometry>
        </mxCell>
        <mxCell id="ojZRrKEfwaqTqY8flWgd-13" value="PipelineController" style="rounded=0;whiteSpace=wrap;html=1;direction=south;" parent="1" vertex="1">
          <mxGeometry x="290" y="730" width="1210" height="40" as="geometry" />
        </mxCell>
        <mxCell id="ojZRrKEfwaqTqY8flWgd-14" style="edgeStyle=orthogonalEdgeStyle;rounded=0;orthogonalLoop=1;jettySize=auto;html=1;exitX=1;exitY=0.5;exitDx=0;exitDy=0;fillColor=#f8cecc;strokeColor=#b85450;" parent="1" source="ojZRrKEfwaqTqY8flWgd-16" target="ojZRrKEfwaqTqY8flWgd-19" edge="1">
          <mxGeometry relative="1" as="geometry" />
        </mxCell>
        <mxCell id="ojZRrKEfwaqTqY8flWgd-15" style="edgeStyle=orthogonalEdgeStyle;rounded=0;orthogonalLoop=1;jettySize=auto;html=1;entryX=0.25;entryY=1;entryDx=0;entryDy=0;" parent="1" target="ojZRrKEfwaqTqY8flWgd-16" edge="1">
          <mxGeometry relative="1" as="geometry">
            <mxPoint x="310" y="730" as="sourcePoint" />
          </mxGeometry>
        </mxCell>
        <mxCell id="ojZRrKEfwaqTqY8flWgd-16" value="PC" style="rounded=0;whiteSpace=wrap;html=1;fillColor=#dae8fc;strokeColor=#6c8ebf;" parent="1" vertex="1">
          <mxGeometry x="290" y="450" width="80" height="40" as="geometry" />
        </mxCell>
        <mxCell id="ojZRrKEfwaqTqY8flWgd-17" style="edgeStyle=orthogonalEdgeStyle;rounded=0;orthogonalLoop=1;jettySize=auto;html=1;exitX=1;exitY=0.5;exitDx=0;exitDy=0;entryX=0;entryY=0.5;entryDx=0;entryDy=0;fillColor=#f8cecc;strokeColor=#b85450;" parent="1" source="ojZRrKEfwaqTqY8flWgd-19" edge="1">
          <mxGeometry relative="1" as="geometry">
            <mxPoint x="490" y="470" as="targetPoint" />
          </mxGeometry>
        </mxCell>
        <mxCell id="ojZRrKEfwaqTqY8flWgd-18" style="edgeStyle=orthogonalEdgeStyle;rounded=0;orthogonalLoop=1;jettySize=auto;html=1;entryX=0.5;entryY=1;entryDx=0;entryDy=0;jumpStyle=arc;" parent="1" target="ojZRrKEfwaqTqY8flWgd-19" edge="1">
          <mxGeometry relative="1" as="geometry">
            <mxPoint x="430" y="730" as="sourcePoint" />
          </mxGeometry>
        </mxCell>
        <mxCell id="ojZRrKEfwaqTqY8flWgd-19" value="IF&lt;br&gt;|&lt;br&gt;ID" style="rounded=0;whiteSpace=wrap;html=1;fillColor=#dae8fc;strokeColor=#6c8ebf;" parent="1" vertex="1">
          <mxGeometry x="410" y="290" width="40" height="360" as="geometry" />
        </mxCell>
        <mxCell id="ojZRrKEfwaqTqY8flWgd-20" style="edgeStyle=orthogonalEdgeStyle;rounded=0;orthogonalLoop=1;jettySize=auto;html=1;exitX=1;exitY=0.25;exitDx=0;exitDy=0;entryX=0;entryY=0.5;entryDx=0;entryDy=0;" parent="1" source="ojZRrKEfwaqTqY8flWgd-24" target="ojZRrKEfwaqTqY8flWgd-36" edge="1">
          <mxGeometry relative="1" as="geometry" />
        </mxCell>
        <mxCell id="ojZRrKEfwaqTqY8flWgd-21" style="edgeStyle=orthogonalEdgeStyle;rounded=0;orthogonalLoop=1;jettySize=auto;html=1;exitX=1;exitY=0.5;exitDx=0;exitDy=0;entryX=-0.03;entryY=0.482;entryDx=0;entryDy=0;entryPerimeter=0;fillColor=#f8cecc;strokeColor=#b85450;" parent="1" source="ojZRrKEfwaqTqY8flWgd-24" target="ojZRrKEfwaqTqY8flWgd-39" edge="1">
          <mxGeometry relative="1" as="geometry" />
        </mxCell>
        <mxCell id="ojZRrKEfwaqTqY8flWgd-22" style="edgeStyle=orthogonalEdgeStyle;rounded=0;orthogonalLoop=1;jettySize=auto;html=1;entryX=0.5;entryY=1;entryDx=0;entryDy=0;jumpStyle=arc;" parent="1" target="ojZRrKEfwaqTqY8flWgd-24" edge="1">
          <mxGeometry relative="1" as="geometry">
            <mxPoint x="710" y="730" as="sourcePoint" />
          </mxGeometry>
        </mxCell>
        <mxCell id="ojZRrKEfwaqTqY8flWgd-23" style="edgeStyle=orthogonalEdgeStyle;rounded=0;orthogonalLoop=1;jettySize=auto;html=1;exitX=0.25;exitY=0;exitDx=0;exitDy=0;entryX=0.75;entryY=0;entryDx=0;entryDy=0;" parent="1" source="ojZRrKEfwaqTqY8flWgd-24" target="ojZRrKEfwaqTqY8flWgd-59" edge="1">
          <mxGeometry relative="1" as="geometry">
            <Array as="points">
              <mxPoint x="700" y="250" />
              <mxPoint x="610" y="250" />
            </Array>
            <mxPoint x="630" y="250" as="targetPoint" />
          </mxGeometry>
        </mxCell>
        <mxCell id="ojZRrKEfwaqTqY8flWgd-24" value="ID&lt;br&gt;|&lt;br&gt;EX" style="rounded=0;whiteSpace=wrap;html=1;fillColor=#dae8fc;strokeColor=#6c8ebf;" parent="1" vertex="1">
          <mxGeometry x="690" y="290" width="40" height="360" as="geometry" />
        </mxCell>
        <mxCell id="ojZRrKEfwaqTqY8flWgd-25" style="edgeStyle=orthogonalEdgeStyle;rounded=0;orthogonalLoop=1;jettySize=auto;html=1;exitX=1;exitY=0.5;exitDx=0;exitDy=0;entryX=0;entryY=0.5;entryDx=0;entryDy=0;fillColor=#f8cecc;strokeColor=#b85450;" parent="1" source="ojZRrKEfwaqTqY8flWgd-27" target="ojZRrKEfwaqTqY8flWgd-42" edge="1">
          <mxGeometry relative="1" as="geometry" />
        </mxCell>
        <mxCell id="ojZRrKEfwaqTqY8flWgd-26" style="edgeStyle=orthogonalEdgeStyle;rounded=0;orthogonalLoop=1;jettySize=auto;html=1;entryX=0.5;entryY=1;entryDx=0;entryDy=0;jumpStyle=arc;" parent="1" target="ojZRrKEfwaqTqY8flWgd-27" edge="1">
          <mxGeometry relative="1" as="geometry">
            <mxPoint x="910" y="730" as="sourcePoint" />
          </mxGeometry>
        </mxCell>
        <mxCell id="ojZRrKEfwaqTqY8flWgd-27" value="EX&lt;br&gt;|&lt;br&gt;MEM" style="rounded=0;whiteSpace=wrap;html=1;fillColor=#dae8fc;strokeColor=#6c8ebf;" parent="1" vertex="1">
          <mxGeometry x="890" y="290" width="40" height="360" as="geometry" />
        </mxCell>
        <mxCell id="ojZRrKEfwaqTqY8flWgd-28" style="edgeStyle=orthogonalEdgeStyle;rounded=0;orthogonalLoop=1;jettySize=auto;html=1;exitX=1;exitY=0.5;exitDx=0;exitDy=0;entryX=0;entryY=0.5;entryDx=0;entryDy=0;" parent="1" source="ojZRrKEfwaqTqY8flWgd-32" target="ojZRrKEfwaqTqY8flWgd-46" edge="1">
          <mxGeometry relative="1" as="geometry" />
        </mxCell>
        <mxCell id="ojZRrKEfwaqTqY8flWgd-29" style="edgeStyle=orthogonalEdgeStyle;rounded=0;orthogonalLoop=1;jettySize=auto;html=1;exitX=1;exitY=0.25;exitDx=0;exitDy=0;entryX=0;entryY=0.5;entryDx=0;entryDy=0;fillColor=#f8cecc;strokeColor=#b85450;" parent="1" source="ojZRrKEfwaqTqY8flWgd-32" target="ojZRrKEfwaqTqY8flWgd-44" edge="1">
          <mxGeometry relative="1" as="geometry" />
        </mxCell>
        <mxCell id="ojZRrKEfwaqTqY8flWgd-30" style="edgeStyle=orthogonalEdgeStyle;rounded=0;orthogonalLoop=1;jettySize=auto;html=1;exitX=1;exitY=0.75;exitDx=0;exitDy=0;entryX=0;entryY=0.5;entryDx=0;entryDy=0;" parent="1" source="ojZRrKEfwaqTqY8flWgd-32" target="ojZRrKEfwaqTqY8flWgd-48" edge="1">
          <mxGeometry relative="1" as="geometry" />
        </mxCell>
        <mxCell id="ojZRrKEfwaqTqY8flWgd-31" style="edgeStyle=orthogonalEdgeStyle;rounded=0;orthogonalLoop=1;jettySize=auto;html=1;entryX=0.5;entryY=1;entryDx=0;entryDy=0;jumpStyle=arc;" parent="1" target="ojZRrKEfwaqTqY8flWgd-32" edge="1">
          <mxGeometry relative="1" as="geometry">
            <mxPoint x="1110" y="730" as="sourcePoint" />
          </mxGeometry>
        </mxCell>
        <mxCell id="ojZRrKEfwaqTqY8flWgd-32" value="MEM&lt;br&gt;|&lt;br&gt;WB" style="rounded=0;whiteSpace=wrap;html=1;fillColor=#dae8fc;strokeColor=#6c8ebf;" parent="1" vertex="1">
          <mxGeometry x="1090" y="290" width="40" height="360" as="geometry" />
        </mxCell>
        <mxCell id="ojZRrKEfwaqTqY8flWgd-33" style="edgeStyle=orthogonalEdgeStyle;rounded=0;orthogonalLoop=1;jettySize=auto;html=1;exitX=1;exitY=0.5;exitDx=0;exitDy=0;entryX=0;entryY=0.5;entryDx=0;entryDy=0;fillColor=#f8cecc;strokeColor=#b85450;" parent="1" target="ojZRrKEfwaqTqY8flWgd-24" edge="1">
          <mxGeometry relative="1" as="geometry">
            <mxPoint x="650" y="470" as="sourcePoint" />
          </mxGeometry>
        </mxCell>
        <mxCell id="ojZRrKEfwaqTqY8flWgd-34" style="edgeStyle=orthogonalEdgeStyle;rounded=0;orthogonalLoop=1;jettySize=auto;html=1;exitX=0.5;exitY=1;exitDx=0;exitDy=0;" parent="1" source="ojZRrKEfwaqTqY8flWgd-59" edge="1">
          <mxGeometry relative="1" as="geometry">
            <mxPoint x="610" y="670" as="sourcePoint" />
            <mxPoint x="570" y="730" as="targetPoint" />
            <Array as="points">
              <mxPoint x="570" y="730" />
            </Array>
          </mxGeometry>
        </mxCell>
        <mxCell id="ojZRrKEfwaqTqY8flWgd-35" style="edgeStyle=orthogonalEdgeStyle;rounded=0;orthogonalLoop=1;jettySize=auto;html=1;exitX=0.5;exitY=1;exitDx=0;exitDy=0;entryX=0.5;entryY=0;entryDx=0;entryDy=0;" parent="1" source="ojZRrKEfwaqTqY8flWgd-36" target="ojZRrKEfwaqTqY8flWgd-39" edge="1">
          <mxGeometry relative="1" as="geometry" />
        </mxCell>
        <mxCell id="ojZRrKEfwaqTqY8flWgd-36" value="MULT&lt;br&gt;DIV" style="rounded=0;whiteSpace=wrap;html=1;" parent="1" vertex="1">
          <mxGeometry x="770" y="360" width="80" height="40" as="geometry" />
        </mxCell>
        <mxCell id="ojZRrKEfwaqTqY8flWgd-37" style="edgeStyle=orthogonalEdgeStyle;rounded=0;orthogonalLoop=1;jettySize=auto;html=1;exitX=1;exitY=0.5;exitDx=0;exitDy=0;entryX=0;entryY=0.5;entryDx=0;entryDy=0;fillColor=#f8cecc;strokeColor=#b85450;" parent="1" source="ojZRrKEfwaqTqY8flWgd-39" target="ojZRrKEfwaqTqY8flWgd-27" edge="1">
          <mxGeometry relative="1" as="geometry" />
        </mxCell>
        <mxCell id="ojZRrKEfwaqTqY8flWgd-38" style="edgeStyle=orthogonalEdgeStyle;rounded=0;orthogonalLoop=1;jettySize=auto;html=1;exitX=0.25;exitY=1;exitDx=0;exitDy=0;jumpStyle=arc;" parent="1" source="ojZRrKEfwaqTqY8flWgd-39" edge="1">
          <mxGeometry relative="1" as="geometry">
            <mxPoint x="790" y="730" as="targetPoint" />
          </mxGeometry>
        </mxCell>
        <mxCell id="ojZRrKEfwaqTqY8flWgd-39" value="ALU" style="rounded=0;whiteSpace=wrap;html=1;fillColor=#dae8fc;strokeColor=#6c8ebf;" parent="1" vertex="1">
          <mxGeometry x="770" y="450" width="80" height="40" as="geometry" />
        </mxCell>
        <mxCell id="ojZRrKEfwaqTqY8flWgd-40" style="edgeStyle=orthogonalEdgeStyle;rounded=0;orthogonalLoop=1;jettySize=auto;html=1;exitX=1;exitY=0.5;exitDx=0;exitDy=0;entryX=0;entryY=0.5;entryDx=0;entryDy=0;fillColor=#f8cecc;strokeColor=#b85450;" parent="1" source="ojZRrKEfwaqTqY8flWgd-42" target="ojZRrKEfwaqTqY8flWgd-32" edge="1">
          <mxGeometry relative="1" as="geometry" />
        </mxCell>
        <mxCell id="ojZRrKEfwaqTqY8flWgd-41" style="edgeStyle=orthogonalEdgeStyle;rounded=0;orthogonalLoop=1;jettySize=auto;html=1;exitX=0.5;exitY=1;exitDx=0;exitDy=0;jumpStyle=arc;" parent="1" source="ojZRrKEfwaqTqY8flWgd-42" edge="1">
          <mxGeometry relative="1" as="geometry">
            <mxPoint x="1010" y="730" as="targetPoint" />
          </mxGeometry>
        </mxCell>
        <mxCell id="ojZRrKEfwaqTqY8flWgd-42" value="MEM" style="rounded=0;whiteSpace=wrap;html=1;fillColor=#dae8fc;strokeColor=#6c8ebf;" parent="1" vertex="1">
          <mxGeometry x="970" y="450" width="80" height="40" as="geometry" />
        </mxCell>
        <mxCell id="ojZRrKEfwaqTqY8flWgd-43" style="edgeStyle=orthogonalEdgeStyle;rounded=0;orthogonalLoop=1;jettySize=auto;html=1;exitX=1;exitY=0.5;exitDx=0;exitDy=0;entryX=0;entryY=0.5;entryDx=0;entryDy=0;fillColor=#f8cecc;strokeColor=#b85450;" parent="1" source="ojZRrKEfwaqTqY8flWgd-44" target="ojZRrKEfwaqTqY8flWgd-50" edge="1">
          <mxGeometry relative="1" as="geometry" />
        </mxCell>
        <mxCell id="ojZRrKEfwaqTqY8flWgd-44" value="RegFIle" style="rounded=0;whiteSpace=wrap;html=1;fillColor=#dae8fc;strokeColor=#6c8ebf;" parent="1" vertex="1">
          <mxGeometry x="1170" y="360" width="80" height="40" as="geometry" />
        </mxCell>
        <mxCell id="ojZRrKEfwaqTqY8flWgd-45" style="edgeStyle=orthogonalEdgeStyle;rounded=0;orthogonalLoop=1;jettySize=auto;html=1;exitX=1;exitY=0.5;exitDx=0;exitDy=0;entryX=0;entryY=0.5;entryDx=0;entryDy=0;" parent="1" source="ojZRrKEfwaqTqY8flWgd-46" target="ojZRrKEfwaqTqY8flWgd-52" edge="1">
          <mxGeometry relative="1" as="geometry" />
        </mxCell>
        <mxCell id="ojZRrKEfwaqTqY8flWgd-46" value="CP0" style="rounded=0;whiteSpace=wrap;html=1;" parent="1" vertex="1">
          <mxGeometry x="1170" y="450" width="80" height="40" as="geometry" />
        </mxCell>
        <mxCell id="ojZRrKEfwaqTqY8flWgd-47" style="edgeStyle=orthogonalEdgeStyle;rounded=0;orthogonalLoop=1;jettySize=auto;html=1;exitX=1;exitY=0.5;exitDx=0;exitDy=0;entryX=0;entryY=0.5;entryDx=0;entryDy=0;" parent="1" source="ojZRrKEfwaqTqY8flWgd-48" target="ojZRrKEfwaqTqY8flWgd-53" edge="1">
          <mxGeometry relative="1" as="geometry" />
        </mxCell>
        <mxCell id="ojZRrKEfwaqTqY8flWgd-48" value="HILO" style="rounded=0;whiteSpace=wrap;html=1;" parent="1" vertex="1">
          <mxGeometry x="1170" y="540" width="80" height="40" as="geometry" />
        </mxCell>
        <mxCell id="ojZRrKEfwaqTqY8flWgd-49" style="edgeStyle=orthogonalEdgeStyle;rounded=0;orthogonalLoop=1;jettySize=auto;html=1;exitX=0.25;exitY=0;exitDx=0;exitDy=0;entryX=0.25;entryY=0;entryDx=0;entryDy=0;" parent="1" target="ojZRrKEfwaqTqY8flWgd-50" edge="1">
          <mxGeometry relative="1" as="geometry">
            <mxPoint x="1335" y="230" as="sourcePoint" />
          </mxGeometry>
        </mxCell>
        <mxCell id="ojZRrKEfwaqTqY8flWgd-50" value="RegRead&lt;br&gt;Proxy" style="rounded=0;whiteSpace=wrap;html=1;fillColor=#dae8fc;strokeColor=#6c8ebf;" parent="1" vertex="1">
          <mxGeometry x="1320" y="340" width="60" height="80" as="geometry" />
        </mxCell>
        <mxCell id="ojZRrKEfwaqTqY8flWgd-51" style="edgeStyle=orthogonalEdgeStyle;rounded=0;orthogonalLoop=1;jettySize=auto;html=1;exitX=0.25;exitY=0;exitDx=0;exitDy=0;entryX=0.25;entryY=0;entryDx=0;entryDy=0;" parent="1" target="ojZRrKEfwaqTqY8flWgd-52" edge="1">
          <mxGeometry relative="1" as="geometry">
            <mxPoint x="1395" y="230" as="sourcePoint" />
          </mxGeometry>
        </mxCell>
        <mxCell id="ojZRrKEfwaqTqY8flWgd-52" value="CP0Read&lt;br&gt;Proxy" style="rounded=0;whiteSpace=wrap;html=1;" parent="1" vertex="1">
          <mxGeometry x="1380" y="430" width="60" height="80" as="geometry" />
        </mxCell>
        <mxCell id="ojZRrKEfwaqTqY8flWgd-53" value="HILORead&lt;br&gt;Proxy" style="rounded=0;whiteSpace=wrap;html=1;" parent="1" vertex="1">
          <mxGeometry x="1440" y="520" width="60" height="80" as="geometry" />
        </mxCell>
        <mxCell id="ojZRrKEfwaqTqY8flWgd-54" style="edgeStyle=orthogonalEdgeStyle;rounded=0;orthogonalLoop=1;jettySize=auto;html=1;exitX=0.5;exitY=0;exitDx=0;exitDy=0;entryX=0.5;entryY=0;entryDx=0;entryDy=0;jumpStyle=arc;" parent="1" target="ojZRrKEfwaqTqY8flWgd-50" edge="1">
          <mxGeometry relative="1" as="geometry">
            <mxPoint x="1350" y="220" as="sourcePoint" />
          </mxGeometry>
        </mxCell>
        <mxCell id="ojZRrKEfwaqTqY8flWgd-55" style="edgeStyle=orthogonalEdgeStyle;rounded=0;orthogonalLoop=1;jettySize=auto;html=1;exitX=0.5;exitY=0;exitDx=0;exitDy=0;entryX=0.5;entryY=0;entryDx=0;entryDy=0;jumpStyle=arc;" parent="1" target="ojZRrKEfwaqTqY8flWgd-52" edge="1">
          <mxGeometry relative="1" as="geometry">
            <mxPoint x="1410" y="220" as="sourcePoint" />
          </mxGeometry>
        </mxCell>
        <mxCell id="ojZRrKEfwaqTqY8flWgd-56" style="edgeStyle=orthogonalEdgeStyle;rounded=0;orthogonalLoop=1;jettySize=auto;html=1;exitX=0.75;exitY=0;exitDx=0;exitDy=0;jumpStyle=arc;entryX=0.5;entryY=0;entryDx=0;entryDy=0;fillColor=#f8cecc;strokeColor=#b85450;" parent="1" source="ojZRrKEfwaqTqY8flWgd-50" target="ojZRrKEfwaqTqY8flWgd-59" edge="1">
          <mxGeometry relative="1" as="geometry">
            <Array as="points">
              <mxPoint x="1365" y="210" />
              <mxPoint x="570" y="210" />
            </Array>
            <mxPoint x="610" y="210" as="targetPoint" />
          </mxGeometry>
        </mxCell>
        <mxCell id="ojZRrKEfwaqTqY8flWgd-57" style="edgeStyle=orthogonalEdgeStyle;rounded=0;orthogonalLoop=1;jettySize=auto;html=1;entryX=0.75;entryY=0;entryDx=0;entryDy=0;jumpStyle=arc;" parent="1" target="ojZRrKEfwaqTqY8flWgd-24" edge="1">
          <mxGeometry relative="1" as="geometry">
            <Array as="points">
              <mxPoint x="720" y="200" />
            </Array>
            <mxPoint x="1010" y="200" as="sourcePoint" />
          </mxGeometry>
        </mxCell>
        <mxCell id="ojZRrKEfwaqTqY8flWgd-58" style="edgeStyle=orthogonalEdgeStyle;rounded=0;orthogonalLoop=1;jettySize=auto;html=1;entryX=0.5;entryY=0;entryDx=0;entryDy=0;jumpStyle=arc;" parent="1" target="ojZRrKEfwaqTqY8flWgd-42" edge="1">
          <mxGeometry relative="1" as="geometry">
            <mxPoint x="1010" y="200" as="sourcePoint" />
          </mxGeometry>
        </mxCell>
        <mxCell id="ojZRrKEfwaqTqY8flWgd-59" value="&lt;blockquote style=&quot;margin: 0 0 0 40px ; border: none ; padding: 0px&quot;&gt;&lt;/blockquote&gt;" style="rounded=0;whiteSpace=wrap;html=1;align=left;" parent="1" vertex="1">
          <mxGeometry x="490" y="280" width="160" height="360" as="geometry" />
        </mxCell>
        <mxCell id="ojZRrKEfwaqTqY8flWgd-60" value="OperandGen" style="rounded=0;whiteSpace=wrap;html=1;fillColor=#dae8fc;strokeColor=#6c8ebf;" parent="1" vertex="1">
          <mxGeometry x="530" y="290" width="80" height="40" as="geometry" />
        </mxCell>
        <mxCell id="ojZRrKEfwaqTqY8flWgd-61" value="CP0Gen" style="rounded=0;whiteSpace=wrap;html=1;" parent="1" vertex="1">
          <mxGeometry x="530" y="490" width="80" height="40" as="geometry" />
        </mxCell>
        <mxCell id="ojZRrKEfwaqTqY8flWgd-62" value="ExceptionGen" style="rounded=0;whiteSpace=wrap;html=1;" parent="1" vertex="1">
          <mxGeometry x="530" y="540" width="80" height="40" as="geometry" />
        </mxCell>
        <mxCell id="ojZRrKEfwaqTqY8flWgd-63" value="FunctGen" style="rounded=0;whiteSpace=wrap;html=1;fillColor=#dae8fc;strokeColor=#6c8ebf;" parent="1" vertex="1">
          <mxGeometry x="530" y="390" width="80" height="40" as="geometry" />
        </mxCell>
        <mxCell id="ojZRrKEfwaqTqY8flWgd-64" value="MemGen" style="rounded=0;whiteSpace=wrap;html=1;" parent="1" vertex="1">
          <mxGeometry x="530" y="440" width="80" height="40" as="geometry" />
        </mxCell>
        <mxCell id="ojZRrKEfwaqTqY8flWgd-65" value="BranchGen" style="rounded=0;whiteSpace=wrap;html=1;" parent="1" vertex="1">
          <mxGeometry x="530" y="590" width="80" height="40" as="geometry" />
        </mxCell>
        <mxCell id="ojZRrKEfwaqTqY8flWgd-66" value="RegGen" style="rounded=0;whiteSpace=wrap;html=1;fillColor=#dae8fc;strokeColor=#6c8ebf;" parent="1" vertex="1">
          <mxGeometry x="530" y="340" width="80" height="40" as="geometry" />
        </mxCell>
        <mxCell id="ojZRrKEfwaqTqY8flWgd-67" style="edgeStyle=orthogonalEdgeStyle;rounded=0;orthogonalLoop=1;jettySize=auto;html=1;exitX=0.5;exitY=1;exitDx=0;exitDy=0;" parent="1" source="ojZRrKEfwaqTqY8flWgd-59" target="ojZRrKEfwaqTqY8flWgd-59" edge="1">
          <mxGeometry x="490" y="280" as="geometry" />
        </mxCell>
        <mxCell id="ojZRrKEfwaqTqY8flWgd-68" value="" style="endArrow=none;html=1;entryX=0.75;entryY=0;entryDx=0;entryDy=0;rounded=0;jumpStyle=arc;" parent="1" target="ojZRrKEfwaqTqY8flWgd-52" edge="1">
          <mxGeometry width="50" height="50" relative="1" as="geometry">
            <mxPoint x="1010" y="200" as="sourcePoint" />
            <mxPoint x="1230" y="420" as="targetPoint" />
            <Array as="points">
              <mxPoint x="1425" y="200" />
            </Array>
          </mxGeometry>
        </mxCell>
        <mxCell id="ojZRrKEfwaqTqY8flWgd-70" style="edgeStyle=orthogonalEdgeStyle;rounded=0;orthogonalLoop=1;jettySize=auto;html=1;exitX=0.75;exitY=0;exitDx=0;exitDy=0;entryX=1;entryY=0.25;entryDx=0;entryDy=0;jumpStyle=arc;" parent="1" source="ojZRrKEfwaqTqY8flWgd-42" target="ojZRrKEfwaqTqY8flWgd-46" edge="1">
          <mxGeometry relative="1" as="geometry">
            <Array as="points">
              <mxPoint x="1030" y="260" />
              <mxPoint x="1280" y="260" />
              <mxPoint x="1280" y="460" />
            </Array>
          </mxGeometry>
        </mxCell>
        <mxCell id="ojZRrKEfwaqTqY8flWgd-71" style="edgeStyle=orthogonalEdgeStyle;rounded=0;jumpStyle=arc;orthogonalLoop=1;jettySize=auto;html=1;entryX=0.5;entryY=0;entryDx=0;entryDy=0;endFill=1;fillColor=#f8cecc;strokeColor=#b85450;exitX=0.25;exitY=0;exitDx=0;exitDy=0;" parent="1" target="ojZRrKEfwaqTqY8flWgd-44" edge="1" source="ojZRrKEfwaqTqY8flWgd-59">
          <mxGeometry relative="1" as="geometry">
            <mxPoint x="540" y="280" as="sourcePoint" />
            <Array as="points">
              <mxPoint x="530" y="190" />
              <mxPoint x="1210" y="190" />
            </Array>
          </mxGeometry>
        </mxCell>
      </root>
    </mxGraphModel>
  </diagram>
</mxfile>
